<?xml version="1.0" encoding="UTF-8" standalone="no"?>
<svg
   xmlns:dc="http://purl.org/dc/elements/1.1/"
   xmlns:cc="http://creativecommons.org/ns#"
   xmlns:rdf="http://www.w3.org/1999/02/22-rdf-syntax-ns#"
   xmlns:svg="http://www.w3.org/2000/svg"
   xmlns="http://www.w3.org/2000/svg"
   xmlns:sodipodi="http://sodipodi.sourceforge.net/DTD/sodipodi-0.dtd"
   xmlns:inkscape="http://www.inkscape.org/namespaces/inkscape"
   sodipodi:docname="document.svg"
   inkscape:version="1.0 (4035a4fb49, 2020-05-01)"
   id="svg1751"
   version="1.1"
   viewBox="0 0 33.866666 33.866668"
   height="128"
   width="128">
  <defs
     id="defs1745" />
  <sodipodi:namedview
     inkscape:window-maximized="0"
     inkscape:window-y="454"
     inkscape:window-x="1019"
     inkscape:window-height="1198"
     inkscape:window-width="1638"
     units="px"
     showgrid="false"
     inkscape:document-rotation="0"
     inkscape:current-layer="layer1"
     inkscape:document-units="mm"
     inkscape:cy="68.195154"
     inkscape:cx="50.20921"
     inkscape:zoom="3.959798"
     inkscape:pageshadow="2"
     inkscape:pageopacity="0.0"
     borderopacity="1.0"
     bordercolor="#666666"
     pagecolor="#ffffff"
     id="base" />
  <metadata
     id="metadata1748">
    <rdf:RDF>
      <cc:Work
         rdf:about="">
        <dc:format>image/svg+xml</dc:format>
        <dc:type
           rdf:resource="http://purl.org/dc/dcmitype/StillImage" />
        <dc:title></dc:title>
      </cc:Work>
    </rdf:RDF>
  </metadata>
  <g
     id="layer1"
     inkscape:groupmode="layer"
     inkscape:label="レイヤー 1">
    <g
       transform="matrix(0.13229166,0,0,0.13229166,1.3470296,1.0873446)"
       id="Layer_2">
      <g
         id="Layer_1-2">
        <path
           d="m 149.49,161.8 -12.82,-12.81 -6.43,19.25 z"
           fill="#3d768d"
           id="path2316" />
        <path
           d="m 158.5,167.47 -32.69,10.83 h 20.11 c 2.297,0 4.16,1.862 4.16,4.16 0,2.298 -1.862,4.16 -4.16,4.16 H 35.19 c -2.2975,0 -4.16,-1.862 -4.16,-4.16 0,-2.298 1.8625,-4.16 4.16,-4.16 h 86.49 c -0.35,0 -0.68,-0.38 -1,-0.68 -1.111,-1.096 -1.5,-2.731 -1,-4.21 l 2.51,-7.59 h -87 c -2.2975,0 -4.16,-1.862 -4.16,-4.16 0,-2.297 1.8625,-4.16 4.16,-4.16 H 125 l 5.86,-17.63 c 0.187,-0.58 0.513,-1.106 0.95,-1.53 L 173.1,97 V 50.42 h -37.68 c -2.069,0.0853 -3.816,-1.523 -3.901,-3.5923 -0.005,-0.1126 -0.005,-0.2252 0.001,-0.3377 V 8.32 H 8.32 V 230.81 H 173.1 V 153.3 L 160,166.51 c -0.413,0.439 -0.928,0.769 -1.5,0.96 z M 35.19,136.72 h 58.75 c 2.2975,0 4.16,1.862 4.16,4.16 0,2.298 -1.8625,4.16 -4.16,4.16 H 35.19 c -2.2975,0 -4.16,-1.862 -4.16,-4.16 0,-2.298 1.8625,-4.16 4.16,-4.16 z m 110.73,70.7 H 35.19 c -2.2975,0 -4.16,-1.862 -4.16,-4.16 0,-2.298 1.8625,-4.16 4.16,-4.16 h 110.73 c 2.297,0 4.16,1.862 4.16,4.16 0,2.298 -1.862,4.16 -4.16,4.16 z"
           fill="#f3f3f2"
           id="path2318" />
        <path
           d="m 139.84,14.46 v 27.65 h 27.62 z"
           fill="#ffffff"
           id="path2320" />
        <path
           d="M 199.1,82.9 215.57,99.38 228.3,86.62 211.86,70.18 Z"
           fill="#3d768d"
           id="path2322" />
        <path
           d="m 139.84,142.04 16.6,16.6 53.2,-53.32 -16.49,-16.48 z"
           fill="#3d768d"
           id="path2324" />
        <path
           d="m 214.94,61.36 c -1.667,-1.6312 -4.333,-1.6312 -6,0 L 181.42,88.73 V 46.5 c 0.043,-1.088 -0.353,-2.1477 -1.1,-2.94 l -42,-42.21 C 137.574,0.528713 136.529,0.0421724 135.42,2.38419e-8 L 3.91,0 C 1.61162,0.144689 -0.136775,2.12113 8.58307e-8,4.42 L 0,234.71 c -0.136776,2.299 1.61162,4.275 3.91,4.42 H 177.5 c 2.3,-0.145 4.051,-2.119 3.92,-4.42 V 145 L 237,89.38 c 1.636,-1.6104 1.659,-4.242 0.05,-5.88 z m -75.11,-46.9 27.63,27.65 H 139.84 Z M 173.1,230.81 H 8.32 V 8.32 h 123.2 V 46.5 c -0.101,2.0686 1.494,3.8275 3.562,3.9287 0.113,0.0055 0.225,0.0059 0.338,0.0013 H 173.1 V 97 l -41.3,41.33 c -0.437,0.425 -0.763,0.95 -0.95,1.53 L 125,157.51 H 35.19 c -2.2975,0 -4.16,1.862 -4.16,4.16 0,2.297 1.8625,4.16 4.16,4.16 h 87 l -2.51,7.59 c -0.5,1.479 -0.111,3.114 1,4.21 0.29,0.29 0.62,0.68 1,0.68 H 35.19 c -2.2975,0 -4.16,1.862 -4.16,4.16 0,2.298 1.8625,4.16 4.16,4.16 h 110.73 c 2.297,0 4.16,-1.862 4.16,-4.16 0,-2.297 -1.862,-4.16 -4.16,-4.16 h -20.11 l 32.69,-10.84 c 0.58,-0.201 1.099,-0.545 1.51,-1 l 13.1,-13.21 z M 136.67,149 l 12.81,12.81 -19.25,6.43 z m 20.5,8.74 L 140.74,141.3 193.51,88.65 209.83,105 Z M 215.7,99.08 199.4,82.78 212,70.18 228.3,86.45 Z"
           fill="#010101"
           id="path2326" />
        <path
           d="M 145.92,199.1 H 35.19 c -2.2975,0 -4.16,1.862 -4.16,4.16 0,2.298 1.8625,4.16 4.16,4.16 h 110.73 c 2.297,0 4.16,-1.862 4.16,-4.16 0,-2.298 -1.862,-4.16 -4.16,-4.16 z"
           fill="#010101"
           id="path2328" />
        <path
           d="m 35.19,145 h 58.75 c 2.2975,0 4.16,-1.862 4.16,-4.16 0,-2.298 -1.8625,-4.16 -4.16,-4.16 H 35.19 c -2.2975,0 -4.16,1.862 -4.16,4.16 0,2.297 1.8625,4.16 4.16,4.16 z"
           fill="#010101"
           id="path2330" />
      </g>
    </g>
  </g>
</svg>
