<svg id="mark" xmlns="http://www.w3.org/2000/svg" width="600" height="200" viewBox="0 0 600 200">
  <defs>
    <style>
      .cls-1 {
        fill: #666;
      }

      .cls-1, .cls-2, .cls-3, .cls-4 {
        fill-rule: evenodd;
      }

      .cls-2 {
        fill: #5eb62f;
      }

      .cls-3 {
        fill: #ea5519;
      }

      .cls-4 {
        fill: #36b982;
      }

      .cls-5 {
        fill: #3f6db4;
      }
    </style>
  </defs>
  <path id="みんなのメディア_みんなにお届け_のコピー" data-name="みんなのメディア！みんなにお届け！ のコピー" class="cls-1" d="M34.126,157.009a48.949,48.949,0,0,1-1.312,6.655,31.127,31.127,0,0,0-7.455-1.951c0.672-2.688,1.472-6.56,1.984-9.728a1.69,1.69,0,0,0,.8-0.544l-2.624-1.408a1.579,1.579,0,0,1-.768.384c-1.664.16-7.455,0.544-10.559,0.64l0.32,3.456a1.381,1.381,0,0,0,.768-0.48c2.432-.16,6.975-0.512,8.479-0.64a70.329,70.329,0,0,1-1.536,8.1c-5.472,0-10.719,2.463-10.719,7.487,0,2.944,1.408,5.408,4.864,5.408,4.256,0,6.144-2.56,8.255-9.888a30.185,30.185,0,0,1,7.359,2.112c-1.376,4.256-3.392,7.2-6.527,9.248a15.058,15.058,0,0,1,2.592,1.823c3.2-2.143,5.344-5.407,6.847-9.759q2.208,1.056,4.608,2.3l1.376-3.072c-1.664-.832-3.456-1.664-5.024-2.336,0.544-1.983,1.056-4.319,1.408-6.3a0.933,0.933,0,0,0,.96-0.608ZM16.368,171.568c-1.248,0-1.984-1.056-1.984-2.592,0-2.912,3.1-4.672,7.136-4.736C19.823,170.256,18.607,171.568,16.368,171.568Zm34.411,5.471c0.544-1.695,1.184-3.519,1.6-4.7,0.864-2.432,4.256-7.3,7.551-7.3,1.152,0,1.76.928,1.76,2.72v0.416c-0.064,1.12-.1,2.432-0.1,3.68,0,3.3,2.272,5.343,5.888,5.343,4.48,0,7.519-3.807,9.407-9.951a23.428,23.428,0,0,1-2.976-1.76c-1.44,5.376-3.648,8.416-6.3,8.416-1.664,0-2.656-1.024-2.656-3.072,0-.512.128-3.584,0.128-4.1,0-2.912-1.44-4.735-4.128-4.735a9.572,9.572,0,0,0-6.4,3.263H54.522c1.184-3.167,3.808-10.207,5.344-13.887a1.282,1.282,0,0,0,1.312-.7l-4.544-1.088c-0.224.9-1.12,3.68-1.792,5.472-1.12,3.168-5.12,14.719-7.3,20.991Zm50.89-13.375c0,1.248.1,3.072,0.224,4.864a13.308,13.308,0,0,0-3.04-.416c-3.072,0-6.335,1.728-6.368,4.96s2.816,4.9,6.3,4.927c5.535,0,6.239-3.519,6.239-5.279a29.805,29.805,0,0,1,4.992,3.04l1.536-2.944a36.867,36.867,0,0,0-6.528-3.456c-0.16-2.016-.288-3.808-0.32-6.048Zm0.416,8.9c0,1.984-1.44,2.784-3.232,2.784-2.144,0-3.616-.8-3.616-2.272,0-1.6,1.824-2.336,3.552-2.336a9.106,9.106,0,0,1,3.3.64v1.184ZM91.973,149.074c-0.192,1.759-.448,3.551-0.768,5.119-0.832.032-1.824,0.032-2.816,0.032H84.71v2.912h3.744c0.7,0,1.536,0,2.208-.032a41.623,41.623,0,0,1-6.175,14.3l3.136,1.152a51.43,51.43,0,0,0,6.432-15.519,64.888,64.888,0,0,0,9.631-1.44l-0.416-3.04a39.4,39.4,0,0,1-8.639,1.5c0.256-1.088.576-2.688,0.768-3.936a1.03,1.03,0,0,0,.96-0.64Zm19.1,8.447a48.537,48.537,0,0,0-11.519,1.632l0.48,2.784a50.618,50.618,0,0,1,11.2-1.408Zm22.316-2.976c0.448-.032.864-0.064,1.312-0.064,6.687,0,10.143,4.1,10.143,9.311,0,5.536-3.328,9.056-10.655,10.5a21.135,21.135,0,0,1,2.016,2.719c7.9-1.951,12.031-5.727,12.031-13.311,0-6.591-4.32-12.191-13.5-12.191-8.288,0-14.527,6.208-14.527,14.143,0,5.248,2.5,8.1,5.6,8.1,5.376,0,8.64-7.456,9.888-17.951a0.858,0.858,0,0,0,.864-0.512ZM125.9,170.576c-1.471,0-2.591-1.984-2.591-5.024a10.93,10.93,0,0,1,9.151-10.815C131.792,162.865,129.36,170.576,125.9,170.576Zm35.5-11.807c2.815,1.28,5.727,2.816,8.479,4.415a48.075,48.075,0,0,1-12.8,11.872,16.7,16.7,0,0,1,2.624,2.3,50.786,50.786,0,0,0,12.959-12.479A52.461,52.461,0,0,1,179,169.648l2.144-2.976a58.4,58.4,0,0,0-6.527-4.607,77.214,77.214,0,0,0,5.6-10.3,1.248,1.248,0,0,0,1.216-.448l-4.16-1.728a63.764,63.764,0,0,1-5.535,10.784c-2.816-1.568-5.792-3.04-8.576-4.256Zm60.873-6.464a26.362,26.362,0,0,0-3.584-4.735l-1.472,1.088a24.785,24.785,0,0,1,3.424,4.735Zm-4.16.992a25.358,25.358,0,0,0-3.52-4.831l-1.536,1.151a10.06,10.06,0,0,1,1.28,1.472h-17.63v2.976h17.662v-2.944a18.3,18.3,0,0,1,2.112,3.328Zm-12.575,9.376c-0.64,5.215-2.624,9.663-8.831,12.8a21.134,21.134,0,0,1,2.463,2.143c6.4-3.231,8.9-8.927,9.728-14.335a0.694,0.694,0,0,0,.7-0.415l-0.608-.16h10.111V159.7H193.863v2.976h11.679Zm43.946-7.392a61.9,61.9,0,0,1-19.07,13.279,12,12,0,0,1,1.568,2.048,78.685,78.685,0,0,0,9.887-5.728v12.863h2.688V163.952a0.809,0.809,0,0,0,.672-0.416c-0.16-.064-0.416-0.16-0.8-0.288a66.455,66.455,0,0,0,6.943-5.791,1.606,1.606,0,0,0,.384.064,0.684,0.684,0,0,0,.544-0.256Zm39.979-4.224-0.416.256H265.5v3.04h21.758a18.378,18.378,0,0,1-5.5,7.04,19.72,19.72,0,0,1,2.783,1.759,30.583,30.583,0,0,0,7.168-10.239,1.042,1.042,0,0,0,.544-0.416Zm-13.791,7.04c-0.608,7.391-3.04,13.919-9.311,17.311a23.2,23.2,0,0,1,2.72,2.047c6.5-3.839,9.119-11.071,9.983-18.334a0.856,0.856,0,0,0,.832-0.608Zm34,10.047,0.64-16.991h-4.224l0.64,16.991h2.944Zm-1.536,7.9a2.608,2.608,0,0,0,0-5.216A2.609,2.609,0,0,0,308.135,176.048ZM346,157.009a48.949,48.949,0,0,1-1.312,6.655,31.112,31.112,0,0,0-7.455-1.951c0.672-2.688,1.472-6.56,1.984-9.728a1.69,1.69,0,0,0,.8-0.544l-2.624-1.408a1.579,1.579,0,0,1-.768.384c-1.664.16-7.455,0.544-10.559,0.64l0.32,3.456a1.381,1.381,0,0,0,.768-0.48c2.432-.16,6.975-0.512,8.479-0.64a70.328,70.328,0,0,1-1.536,8.1c-5.471,0-10.719,2.463-10.719,7.487,0,2.944,1.408,5.408,4.864,5.408,4.255,0,6.143-2.56,8.255-9.888a30.189,30.189,0,0,1,7.36,2.112c-1.376,4.256-3.392,7.2-6.528,9.248a15.056,15.056,0,0,1,2.592,1.823c3.2-2.143,5.343-5.407,6.847-9.759q2.208,1.056,4.608,2.3l1.376-3.072c-1.664-.832-3.456-1.664-5.024-2.336,0.544-1.983,1.056-4.319,1.408-6.3a0.933,0.933,0,0,0,.96-0.608Zm-17.758,14.559c-1.248,0-1.984-1.056-1.984-2.592,0-2.912,3.1-4.672,7.135-4.736C331.7,170.256,330.482,171.568,328.243,171.568Zm34.411,5.471c0.544-1.695,1.184-3.519,1.6-4.7,0.864-2.432,4.255-7.3,7.551-7.3,1.152,0,1.76.928,1.76,2.72v0.416c-0.064,1.12-.1,2.432-0.1,3.68,0,3.3,2.272,5.343,5.888,5.343,4.479,0,7.519-3.807,9.407-9.951a23.43,23.43,0,0,1-2.976-1.76c-1.44,5.376-3.648,8.416-6.3,8.416-1.664,0-2.656-1.024-2.656-3.072,0-.512.128-3.584,0.128-4.1,0-2.912-1.44-4.735-4.128-4.735a9.568,9.568,0,0,0-6.4,3.263H366.4c1.183-3.167,3.807-10.207,5.343-13.887a1.282,1.282,0,0,0,1.312-.7l-4.544-1.088c-0.224.9-1.12,3.68-1.792,5.472-1.119,3.168-5.119,14.719-7.295,20.991Zm50.89-13.375c0,1.248.1,3.072,0.224,4.864a13.305,13.305,0,0,0-3.04-.416c-3.072,0-6.336,1.728-6.368,4.96s2.816,4.9,6.3,4.927c5.536,0,6.24-3.519,6.24-5.279a29.838,29.838,0,0,1,4.991,3.04l1.536-2.944a36.894,36.894,0,0,0-6.527-3.456c-0.161-2.016-.288-3.808-0.321-6.048Zm0.416,8.9c0,1.984-1.44,2.784-3.232,2.784-2.144,0-3.616-.8-3.616-2.272,0-1.6,1.824-2.336,3.552-2.336a9.1,9.1,0,0,1,3.3.64v1.184Zm-10.112-23.486c-0.192,1.759-.448,3.551-0.767,5.119-0.832.032-1.824,0.032-2.816,0.032h-3.68v2.912h3.744c0.7,0,1.536,0,2.208-.032a41.622,41.622,0,0,1-6.176,14.3l3.136,1.152a51.427,51.427,0,0,0,6.431-15.519,64.919,64.919,0,0,0,9.632-1.44l-0.416-3.04a39.415,39.415,0,0,1-8.64,1.5c0.256-1.088.576-2.688,0.768-3.936a1.03,1.03,0,0,0,.96-0.64Zm19.1,8.447a48.541,48.541,0,0,0-11.519,1.632l0.48,2.784a50.625,50.625,0,0,1,11.2-1.408Zm11.981-7.168a100.62,100.62,0,0,0-1.568,15.551,35.6,35.6,0,0,0,1.44,11.231l3.168-.511a4.064,4.064,0,0,1-.16-1.088,5.3,5.3,0,0,1,.256-1.5c0.448-1.472,1.5-3.264,2.687-5.984l-1.631-2.208c-0.416,1.088-1.728,4.1-2.24,5.344a36.071,36.071,0,0,1-.288-5.408,77.651,77.651,0,0,1,1.664-14.207,0.9,0.9,0,0,0,1.024-.576Zm9.5,7.232a111.267,111.267,0,0,0,13.951-1.152l-0.32-3.136a107.624,107.624,0,0,1-13.727,1.216Zm14.719,13.855a39.419,39.419,0,0,1-4.384.224c-3.679,0-7.679-.192-7.679-3.168,0-1.7,1.024-3.232,2.56-4.768l-3.008-1.087c-1.728,2.111-2.88,4.031-2.88,6.271,0,2.656,1.824,4.928,6.016,5.5a42.742,42.742,0,0,0,5.791.32c1.184,0,2.368-.032,3.488-0.1Zm25.9-18.015a23.1,23.1,0,0,1-5.312,1.248c0.032-1.6.064-3.3,0.16-4.512a0.872,0.872,0,0,0,.864-0.736l-4.192-.16v5.728c-2.207.128-4.671,0.16-7.391,0.128l0.032,3.072c2.688,0,5.152-.032,7.359-0.192v6.079a21.052,21.052,0,0,0-4.127,2.3c-2.464,1.76-3.936,4.032-3.936,6.144,0,3.52,2.848,5.183,5.664,5.183a5.071,5.071,0,0,0,5.471-5.279c0-.832-0.032-4.288-0.032-6.72a21.948,21.948,0,0,1,6.592-1.28c3.807,0,5.887,2.08,5.887,4.9,0,2.72-1.568,4.832-4.543,4.832a5.68,5.68,0,0,1-4.576-2.368,22.34,22.34,0,0,1-1.6,2.4,7.524,7.524,0,0,0,6.112,2.911c5.247,0,7.839-3.3,7.839-7.775,0-4.832-3.744-7.647-9.055-7.647a23.127,23.127,0,0,0-6.656,1.279c0-1.6,0-3.455.032-5.215a34.886,34.886,0,0,0,5.856-1.184Zm11.455,3.9a27.13,27.13,0,0,0-7.551-4.384l-1.568,2.624a26.09,26.09,0,0,1,7.263,4.448Zm-19.9,14.943a2.593,2.593,0,1,1-5.183.16c0-2.848,4.159-4.96,5.151-5.44C476.606,169.2,476.606,171.472,476.606,172.272Zm45.9-12.223a0.675,0.675,0,0,0,.736-0.512l-3.68-.224V162.9h-8.255v15.583h2.847v-1.088h13.983v1.088h2.976V162.9h-8.607v-2.847Zm-2.944,8.735h-5.408v-3.168h5.408v3.168Zm8.575,0h-5.631v-3.168h5.631v3.168Zm-8.575,2.464v3.424h-5.408v-3.424h5.408Zm2.944,0h5.631v3.424h-5.631v-3.424Zm8.351-21.183H506.538v9.472c0,5.151-.288,12.383-3.52,17.374a11.175,11.175,0,0,1,2.688,1.568c3.776-5.855,3.872-15.2,3.872-19.422h21.278v-8.992Zm-3.04,6.24H509.578v-3.456h18.238v3.456Zm23.148,4.8c2.688,0,6.08-.064,8.1-0.224,0.032,0.448.032,2.175,0.032,2.591,0,5.44-1.216,9.472-6.912,12.288a17.238,17.238,0,0,1,2.5,2.207c6.048-3.167,7.647-8.159,7.647-15.007l-0.032-2.207a50.287,50.287,0,0,0,6.016-.8l-0.256-3.168a34.815,34.815,0,0,1-5.888.96c-0.1-2.72-.224-5.792-0.256-7.392a1.054,1.054,0,0,0,.9-0.832l-4.319-.128c0.1,0.8.32,4.832,0.512,8.544-2.176.16-5.952,0.224-8.064,0.224Zm-8.319-10.464a85.146,85.146,0,0,0-1.472,14.047,36.156,36.156,0,0,0,1.472,10.816l3.136-.576a4.97,4.97,0,0,1-.192-1.28,3.9,3.9,0,0,1,.32-1.44,49.671,49.671,0,0,1,3.359-6.144l-1.919-2.3c-0.928,1.664-2.24,4.288-2.848,5.6a34.8,34.8,0,0,1-.256-4.768,68.144,68.144,0,0,1,1.7-12.735,0.889,0.889,0,0,0,.832-0.608Zm42.826,17.5,0.64-16.991h-4.224l0.64,16.991h2.944Zm-1.536,7.9a2.608,2.608,0,0,0,0-5.216A2.609,2.609,0,0,0,583.935,176.048Z"/>
  <path id="GoodLife_のコピー" data-name="GoodLife のコピー" class="cls-2" d="M199.41,81.248H171.69v12.87H183.9V114.8c-1.43.66-4.4,1.21-8.36,1.21-13.97,0-24.42-9.9-24.42-29.48,0-20.46,11.44-29.7,26.51-29.7,7.48,0,12.32,1.32,16.17,3.08l3.41-13.42c-4.07-1.98-11.22-3.52-19.8-3.52-24.31,0-43.34,15.29-43.34,43.89,0,13.42,4.18,24.97,11.44,32.12,7.15,7.04,16.94,10.34,29.81,10.34a74.935,74.935,0,0,0,24.09-4.18V81.248Zm38.953-15.4c-16.61,0-29.04,11.66-29.04,32.23,0,19.91,11.88,31.57,28.38,31.57,13.64,0,28.6-9.02,28.6-32.34C266.3,78.718,255.523,65.848,238.363,65.848Zm11.44,31.79c0,10.89-4.18,20.02-11.88,20.02-7.92,0-12.1-9.02-12.1-19.91,0-9.35,3.19-19.91,12.21-19.91C246.393,77.838,249.8,88.068,249.8,97.638Zm53.583-31.79c-16.61,0-29.04,11.66-29.04,32.23,0,19.91,11.88,31.57,28.38,31.57,13.64,0,28.6-9.02,28.6-32.34C331.326,78.718,320.546,65.848,303.386,65.848Zm11.44,31.79c0,10.89-4.18,20.02-11.88,20.02-7.92,0-12.1-9.02-12.1-19.91,0-9.35,3.19-19.91,12.21-19.91C311.416,77.838,314.826,88.068,314.826,97.638ZM395.579,40H379.3v33.11h-0.22c-2.42-4.18-7.59-7.15-14.74-7.15-13.2,0-24.75,11.44-24.75,32.34,0,18.59,9.9,31.35,23.76,31.35a19.266,19.266,0,0,0,17.27-9.9h0.33l0.77,8.69h14.3c-0.22-4.51-.44-11.33-0.44-17.49V40Zm-16.28,63.36c0,9.68-6.16,13.2-11,13.2-7.7,0-12.32-7.37-12.32-18.48,0-10.67,4.18-19.25,12.54-19.25,5.39,0,10.78,4.4,10.78,13.31v11.22Zm78.223,11.33h-30.25V43.848h-16.28v84.59h46.53v-13.75Zm26.633-64.24c0-5.06-3.52-8.69-8.8-8.69a8.377,8.377,0,0,0-8.69,8.69,8.377,8.377,0,0,0,8.69,8.69C480.415,59.138,484.155,55.728,484.155,50.448Zm-0.55,16.72h-16.28v61.27h16.28V67.168Zm16.513,0h-8.14v11.99h8.14v49.28H516.4V79.158h12.1V67.168h-12.21c0-6.16,0-15.4,9.13-15.4a17.066,17.066,0,0,1,5.94.99l1.21-12.54a31.586,31.586,0,0,0-9.68-1.43c-11.99,0-22.77,7.37-22.77,25.85v2.53Zm80.533,47.63a44.612,44.612,0,0,1-14.96,2.53c-8.8,0-16.28-4.18-16.72-14.63H585.6a37.589,37.589,0,0,0,.44-6.49c0-19.8-9.68-30.36-24.53-30.36-17.93,0-28.05,15.18-28.05,32.78,0,19.03,10.78,30.91,29.7,30.91,7.59,0,14.74-1.32,19.8-3.52Zm-31.68-23.43c0.44-6.05,3.74-14.19,11.55-14.19,8.03,0,10.56,7.81,10.45,14.19h-22Z"/>
  <path id="上" class="cls-3" d="M10,20H120V50H10V20ZM90,50h30V90H90V50Z"/>
  <path id="下" class="cls-4" d="M10,100H120v30H10V100Zm0-40H40v40H10V60Z"/>
  <path id="長方形_1" data-name="長方形 1" class="cls-5" d="M65,60h0A15,15,0,0,1,80,75v0A15,15,0,0,1,65,90H50a0,0,0,0,1,0,0V75A15,15,0,0,1,65,60Z"/>
</svg>
