<?xml version="1.0" encoding="UTF-8" standalone="no"?>
<svg
   xmlns:dc="http://purl.org/dc/elements/1.1/"
   xmlns:cc="http://creativecommons.org/ns#"
   xmlns:rdf="http://www.w3.org/1999/02/22-rdf-syntax-ns#"
   xmlns:svg="http://www.w3.org/2000/svg"
   xmlns="http://www.w3.org/2000/svg"
   xmlns:sodipodi="http://sodipodi.sourceforge.net/DTD/sodipodi-0.dtd"
   xmlns:inkscape="http://www.inkscape.org/namespaces/inkscape"
   sodipodi:docname="mail.svg"
   inkscape:version="1.0 (4035a4fb49, 2020-05-01)"
   id="svg975"
   version="1.1"
   viewBox="0 0 33.866666 33.866667"
   height="128"
   width="128">
  <defs
     id="defs969" />
  <sodipodi:namedview
     inkscape:window-maximized="0"
     inkscape:window-y="707"
     inkscape:window-x="1346"
     inkscape:window-height="1016"
     inkscape:window-width="1638"
     units="px"
     showgrid="false"
     inkscape:document-rotation="0"
     inkscape:current-layer="layer1"
     inkscape:document-units="mm"
     inkscape:cy="110.98236"
     inkscape:cx="137.45274"
     inkscape:zoom="1.979899"
     inkscape:pageshadow="2"
     inkscape:pageopacity="0.0"
     borderopacity="1.0"
     bordercolor="#666666"
     pagecolor="#ffffff"
     id="base" />
  <metadata
     id="metadata972">
    <rdf:RDF>
      <cc:Work
         rdf:about="">
        <dc:format>image/svg+xml</dc:format>
        <dc:type
           rdf:resource="http://purl.org/dc/dcmitype/StillImage" />
        <dc:title></dc:title>
      </cc:Work>
    </rdf:RDF>
  </metadata>
  <g
     id="layer1"
     inkscape:groupmode="layer"
     inkscape:label="レイヤー 1">
    <g
       transform="matrix(0.13173736,0,0,0.15587582,1.7599519,6.9798595)"
       id="Layer_2"
       style="display:inline">
      <g
         id="Layer_1-2">
        <path
           d="m 118.27,92.77 c -1.342,1.0287 -3.208,1.0287 -4.55,0 L 86.39,71.82 14.7,127.22 h 203 L 147.47,70.38 Z"
           fill="#f3f3f2"
           id="path1701" />
        <path
           d="M 7.48,11.32 V 123.34 L 80.25,67.11 Z"
           fill="#f3f3f2"
           id="path1703" />
        <path
           d="M 217.22,7.48 H 14.77 l 101.22,77.61 z"
           fill="#f3f3f2"
           id="path1705" />
        <path
           d="M 224.5,123.12 V 11.32 L 153.58,65.7 Z"
           fill="#f3f3f2"
           id="path1707" />
        <path
           d="M 228.25,0 H 3.74 C 1.67446,0 0,1.67446 0,3.74 V 131 c 0,2.066 1.67446,3.74 3.74,3.74 h 224.5 c 2.066,0.011 3.749,-1.654 3.76,-3.72 0,-0.007 0,-0.013 0,-0.02 V 3.74 C 232,1.67446 230.326,-5.97595e-6 228.26,-1.33594e-5 228.257,-1.33714e-5 228.253,-8.91505e-6 228.25,0 Z m -11,7.48 L 116,85.09 14.77,7.48 Z M 7.48,11.33 80.25,67.11 7.48,123.34 Z m 7.22,115.89 71.69,-55.4 27.32,20.95 c 1.342,1.0287 3.208,1.0287 4.55,0 l 29.2,-22.39 70.21,56.83 z M 224.5,123.12 153.58,65.7 224.5,11.33 Z"
           fill="#020202"
           id="path1709" />
        <path
           d="M 152.01,80.04 163.06,66.41 145.5,63.47 Z"
           fill="#3c758c"
           id="path1711" />
        <path
           d="M 235.58,113.87 171,61.48 c -0.442,-0.358 -0.969,-0.5957 -1.53,-0.69 L 140.85,56 c -1.798,-0.2969 -3.497,0.9202 -3.793,2.7184 -0.097,0.5865 -0.034,1.1882 0.183,1.7416 l 10.6,27 c 0.21,0.5324 0.554,1.001 1,1.36 l 64.63,52.38 c 6.369,5.136 15.693,4.152 20.85,-2.2 l 3.45,-4.25 c 5.162,-6.366 4.185,-15.712 -2.182,-20.873 -0.002,-0.002 -0.005,-0.005 -0.008,-0.007 z M 145.5,63.47 163.06,66.41 152,80 Z m 87.14,67.11 -3.45,4.25 c -2.881,3.517 -8.064,4.04 -11.59,1.17 l -3.84,-3.11 v 0 l -58,-47 13.83,-17.06 52.89,42.87 v 0 l 5.12,4.15 v 0 l 3.84,3.12 c 3.536,2.864 4.081,8.053 1.217,11.589 -0.006,0.007 -0.011,0.014 -0.017,0.021 z"
           fill="#010101"
           id="path1713" />
        <path
           d="m 231.43,119 -3.84,-3.12 v 0 l -5.12,-4.15 -52.9,-42.88 -13.82,17.05 58,47 v 0 l 3.85,3.1 c 3.538,2.867 8.73,2.326 11.6,-1.21 l 3.45,-4.25 c 2.83,-3.529 2.286,-8.68 -1.22,-11.54 z"
           fill="#3c758c"
           id="path1715" />
      </g>
    </g>
  </g>
  <style
     type="text/css"
     id="style1553">
	.st0{fill:#4B4B4B;}
</style>
  <style
     type="text/css"
     id="style1584">
	.st0{fill:#4B4B4B;}
</style>
</svg>
